<svg width="16" height="13" viewBox="0 0 16 13" fill="none" xmlns="http://www.w3.org/2000/svg">
<path d="M1 7.01891V5.35854L2.23529 5.35837L3.47059 5.3582C3.47059 -0.452724 12.5294 -0.452744 12.5294 5.3582L13.6688 5.35855L15 5.3582V7.01891L13.6688 7.2505L13.3529 12H12.5294H10.4706H8H5.52941H3.47059H2.64706L2.23529 7.22636L1 7.01891Z" fill="#D9D9D9"/>
<path d="M3.47059 5.3582C3.47059 -0.452724 12.5294 -0.452744 12.5294 5.3582M3.47059 5.3582L2.23529 5.35837M3.47059 5.3582H5.52941M12.5294 5.3582L13.6688 5.35855M12.5294 5.3582L10.4706 5.35855M13.6688 5.35855L15 5.3582V7.01891L13.6688 7.2505L13.3529 12H12.5294M13.6688 5.35855L12.5294 12M12.5294 12H10.4706M2.23529 5.35837L1 5.35854V7.01891L2.23529 7.22636L2.64706 12H3.47059M2.23529 5.35837L3.47059 12M3.47059 12H5.52941M5.52941 5.3582V12M5.52941 5.3582H8M5.52941 12H8M8 12V5.3582M8 12H10.4706M8 5.3582L10.4706 5.35855M10.4706 5.35855V12" stroke="white" stroke-width="2" stroke-linecap="round"/>
</svg>
