<svg width="193" height="141" viewBox="0 0 193 141" fill="none" xmlns="http://www.w3.org/2000/svg">
<ellipse cx="70.0655" cy="14.1963" rx="3.30901" ry="3.26866" transform="rotate(-50.8756 70.0655 14.1963)" fill="#5C080E"/>
<path d="M85.9917 20.7523L90.2626 15.5015L95.4494 19.7203L91.1785 24.9711L85.9917 20.7523Z" fill="#5C080E"/>
<path d="M92.3671 2.67193L91.1546 9.97415L85.4649 5.34623L92.3671 2.67193Z" fill="#04033D"/>
<rect x="60.6571" y="39.8912" width="42.5659" height="2.08006" transform="rotate(-50.8756 60.6571 39.8912)" fill="#04033D"/>
<path d="M72.8536 28.1935C74.5926 28.0569 74.8705 28.1861 77.3926 27.9109C79.7965 27.6881 83.3181 27.6897 84.3994 26.2426L87.911 21.9253L89.6399 23.3315L85.6063 28.2906C84.125 29.994 80.671 29.9097 77.769 30.1559C75.6946 30.3319 73.4876 30.3572 71.8639 30.5876C70.8232 30.8074 70.291 31.344 70.291 31.344L72.8536 28.1935Z" fill="#5C080E"/>
<path d="M65.9721 33.3569C65.7517 31.6265 65.5686 31.3807 65.3244 28.8555C65.0529 26.4566 64.3342 23.0091 65.5307 21.6558L69.0424 17.3384L67.3134 15.9322L63.2798 20.8912C61.9138 22.6884 62.6998 26.0528 63.0498 28.9442C63.3 31.0109 63.7246 33.1768 63.8298 34.8134C63.8265 35.8771 63.4095 36.5074 63.4095 36.5074L65.9721 33.3569Z" fill="#5C080E"/>
<path d="M2.0625 43.0817V44.7574C5.44629 45.0797 5.92969 45.3698 5.92969 49.3981V67.3805C5.92969 71.441 5.44629 71.6989 1.77246 72.0533V73.7291H16.8545V72.0533C12.665 71.6989 12.2139 71.441 12.2139 67.3805V60.9674L15.5977 61.7731C16.1133 61.7731 16.8867 61.7731 17.6602 61.6764C22.5908 61.0641 27.3604 58.2281 27.3604 51.8473C27.3604 48.818 26.1035 46.4977 23.8799 44.9186C22.0107 43.5973 19.2393 43.0817 15.501 43.0817H2.0625ZM12.2139 46.8844C12.2139 46.1754 12.3428 45.692 12.6328 45.4342C12.9229 45.1764 13.5352 44.9508 14.4697 44.9508C17.4668 44.9508 20.5283 46.691 20.5283 51.944C20.5283 58.2926 16.7256 59.5494 14.8887 59.5494C13.8574 59.5494 12.7617 59.3239 12.2139 59.0983V46.8844ZM48.3076 42.3727C37.125 42.3727 30.9375 50.2037 30.9375 58.4215C30.9375 67.4772 37.8984 74.4703 47.6953 74.4703C57.0088 74.4703 64.7432 68.2506 64.7432 58.0348C64.7432 48.7535 57.2666 42.3727 48.3398 42.3727H48.3076ZM47.4053 44.403C53.2061 44.403 57.4277 49.9459 57.4277 59.3561C57.4277 68.0573 53.3672 72.4078 48.6299 72.4078C42.2168 72.4078 38.2529 65.6403 38.2529 57.5836C38.2529 49.2369 42.4102 44.403 47.373 44.403H47.4053ZM98.0332 72.569C96.9053 72.1823 96.1641 71.6989 95.165 70.6354C94.2305 69.6364 93.167 68.0895 91.459 65.4791C90.0088 63.3199 88.2363 60.194 87.5273 58.8082C90.7178 57.5836 93.5215 55.3278 93.5215 51.1383C93.5215 48.2379 92.2002 46.1432 90.3311 44.8541C88.3652 43.5328 85.916 43.0817 81.5654 43.0817H68.1914V44.7574C71.7041 45.0475 72.1875 45.5953 72.1875 49.3658V67.3805C72.1875 71.2477 71.5752 71.6666 67.998 72.0533V73.7291H82.5322V72.0533C78.8906 71.6666 78.4072 71.2477 78.4072 67.3805V60.5807H79.3418C80.8887 60.5807 81.791 61.1608 82.5967 62.5465C84.0146 65.0602 85.2715 67.5739 86.5283 69.5074C88.4619 72.4723 90.3311 73.8258 96.4541 74.1158C97.002 74.1158 97.5176 74.1481 97.7432 74.1481L98.0332 72.569ZM78.4072 58.7115V47.2067C78.4072 46.2721 78.5039 45.7565 78.8262 45.4664C79.1807 45.1764 79.8252 44.9508 81.082 44.9508C83.8213 44.9508 86.7861 46.7877 86.7861 51.8151C86.7861 54.1998 86.1094 56.0367 84.4658 57.4547C83.4023 58.3893 81.6943 58.7115 79.5996 58.7115H78.4072ZM126.65 51.2028C126.425 48.2057 126.135 43.8873 126.103 41.8893H124.975C124.104 42.7916 123.46 43.0817 122.139 43.0817H102.352C100.966 43.0817 100.321 42.985 99.5801 41.8893H98.3877C98.291 44.3063 98.0332 47.819 97.8398 51.3317H99.6123C100.225 48.9469 100.837 47.3033 101.675 46.4977C102.352 45.7565 103.125 45.1764 107.508 45.1764H109.055V67.3805C109.055 71.441 108.539 71.6989 104.446 72.0533V73.7291H120.27V72.0533C115.983 71.6989 115.468 71.441 115.468 67.3805V45.1764H117.595C120.688 45.1764 121.849 45.4664 122.751 46.3043C123.589 47.2067 124.362 48.8502 124.91 51.2994L126.65 51.2028ZM136.415 85.4596V38.5377H132.419V85.4596H136.415Z" fill="#04033D"/>
<path d="M157.298 73.7291V72.0533C153.688 71.6989 153.27 71.441 153.27 67.3805V49.3981C153.27 45.3698 153.688 45.0797 157.298 44.7574V43.0817H142.796V44.7574C146.405 45.0797 146.889 45.3698 146.889 49.3981V67.3805C146.889 71.441 146.405 71.6989 142.796 72.0533V73.7291H157.298ZM189.492 51.2028C189.267 48.2057 188.977 43.8873 188.944 41.8893H187.816C186.946 42.7916 186.302 43.0817 184.98 43.0817H165.193C163.808 43.0817 163.163 42.985 162.422 41.8893H161.229C161.133 44.3063 160.875 47.819 160.682 51.3317H162.454C163.066 48.9469 163.679 47.3033 164.517 46.4977C165.193 45.7565 165.967 45.1764 170.35 45.1764H171.896V67.3805C171.896 71.441 171.381 71.6989 167.288 72.0533V73.7291H183.111V72.0533C178.825 71.6989 178.31 71.441 178.31 67.3805V45.1764H180.437C183.53 45.1764 184.69 45.4664 185.593 46.3043C186.431 47.2067 187.204 48.8502 187.752 51.2994L189.492 51.2028Z" fill="#5C080E"/>
<rect x="30.3286" y="41.272" width="35.8429" height="35.8429" fill="white"/>
<path fill-rule="evenodd" clip-rule="evenodd" d="M62.009 39.3325C70.9886 46.6365 72.3471 59.8369 65.0432 68.8166C57.7392 77.7962 44.5388 79.1546 35.5591 71.8507C26.5795 64.5468 25.221 51.3463 32.525 42.3667C39.8289 33.387 53.0293 32.0286 62.009 39.3325ZM41.8896 65.9391L37.7964 70.9714C40.571 72.992 43.7309 74.1575 46.9449 74.5019C47.5723 72.9674 48.2492 71.4732 48.9789 70.0219C46.6042 69.0539 44.1947 67.6866 41.8896 65.9391ZM50.7553 70.674C50.0653 71.8985 49.3607 73.2058 48.6342 74.6075C52.3819 74.6753 56.1245 73.6409 59.341 71.5578C56.8109 71.9912 53.8434 71.6821 50.7553 70.674ZM51.8478 68.784C53.1891 66.5245 54.4879 64.5666 55.8003 62.8205L62.1002 67.9448C59.7104 69.7662 55.9613 69.9923 51.8478 68.784ZM54.2405 61.5518C52.6612 63.6221 51.2416 65.8223 49.9676 68.141C47.7216 67.2658 45.4143 65.9876 43.1978 64.3307L48.955 57.2527L54.2405 61.5518ZM57.0759 61.1945L63.5192 66.4355C65.3501 63.6894 64.92 59.6167 62.7059 55.4643C60.6831 57.1904 58.8512 59.0288 57.0759 61.1945ZM61.706 53.7707C59.432 55.6511 57.3792 57.7112 55.5282 59.9357L50.2589 55.6497L56.5748 47.8847C58.6599 49.7276 60.389 51.7384 61.706 53.7707ZM63.146 52.6268C61.7135 50.4947 59.8813 48.4098 57.6968 46.5053L61.79 41.473C64.3787 43.819 66.1813 46.7363 67.162 49.8754C65.7563 50.738 64.4186 51.6559 63.146 52.6268ZM64.1632 54.2649C65.2482 53.4024 66.3914 52.5561 67.6108 51.6972L67.5709 51.4046C68.3839 55.0419 68.1285 58.8933 66.7518 62.4467C66.6614 59.8947 65.7633 57.0686 64.1632 54.2649ZM47.352 55.9488L41.583 63.0414C39.5292 61.2921 37.8012 59.378 36.449 57.4293C38.5214 55.6653 40.4059 53.7485 42.1177 51.6913L47.352 55.9488ZM40.281 64.6421C38.1311 62.8001 36.3136 60.7828 34.8722 58.7133C33.6124 59.6945 32.2877 60.623 30.8953 61.4964C31.8913 64.5475 33.6684 67.3792 36.1934 69.6676L40.281 64.6421ZM33.7488 44.8842C32.3748 47.7568 33.0658 51.7594 35.3933 55.7712C37.2381 54.1582 38.9283 52.4353 40.57 50.4324L33.7488 44.8842ZM48.6559 54.3458L43.4054 50.0751C45.1915 47.7338 46.7734 45.2263 48.1712 42.5691C50.4414 43.5022 52.7641 44.843 54.9836 46.5663L48.6559 54.3458ZM41.8456 48.8064C43.3366 46.8227 44.8101 44.5656 46.3483 41.9035C41.6326 40.3997 37.3389 40.7485 34.9375 43.1875L41.8456 48.8064ZM39.0947 39.2989C41.5328 39.0158 44.3294 39.3799 47.225 40.3552C47.888 39.1611 48.5654 37.89 49.2635 36.5317C45.7187 36.4835 42.1823 37.421 39.0947 39.2989ZM50.9032 36.6246C50.3038 38.1249 49.6578 39.5872 48.9624 41.0094C51.3572 42.0059 53.7837 43.4076 56.0994 45.1946L60.187 40.1691C57.3734 38.1202 54.1637 36.9505 50.9032 36.6246ZM30.3984 59.6727C31.6094 58.8113 32.7452 57.9598 33.8239 57.0888C32.2263 54.4039 31.2692 51.6854 31.0457 49.1946C29.8407 52.5864 29.6399 56.2243 30.3984 59.6727Z" fill="#04033D"/>
</svg>
